<svg xmlns="http://www.w3.org/2000/svg" xml:space="preserve" width="200" height="200" viewBox="0 0 64 64"><circle cx="32" cy="32" r="32" style="fill:#c75c5c"/><g style="opacity:.2"><path d="M28.1 58.1S12 55.7 12 42s21-15 16.4-32c0 0 15.7 4.9 11.9 20.2 0 0 2.1-1.3 3.7-3.9 0 0 8 6.2 8 15.5S41 58 35.7 58c0 0 5.6-7.6.5-12.5-7.3-7-4.2-11.4-4.2-11.4s-17.8 8.7-3.9 24z" style="fill:#231f20"/></g><path d="M28.1 56.1S12 53.7 12 40 33 25 28.4 8c0 0 15.7 4.9 11.9 20.2 0 0 2.1-1.3 3.7-3.9 0 0 8 6.2 8 15.5S41 56 35.7 56c0 0 5.6-7.6.5-12.5-7.3-7-4.2-11.4-4.2-11.4s-17.8 8.7-3.9 24z" style="fill:#f5cf87"/></svg>